<svg id="Capa_1" data-name="Capa 1" xmlns="http://www.w3.org/2000/svg" viewBox="0 0 106.91 37.74"><defs><style>.cls-1{fill:#fff;}</style></defs><path class="cls-1" d="M13,.13C5.85.13.05,5.67.05,12.5s5.8,12.36,13,12.36a13.39,13.39,0,0,0,5.65-1.23V19.35a.6.6,0,0,0-.92-.5A8.47,8.47,0,0,1,13,20.29,8,8,0,0,1,4.84,12.5,8,8,0,0,1,13,4.71a8,8,0,0,1,8.16,7.51V24.86H26V12.5C26,5.67,20.16.13,13,.13Z" transform="translate(-0.05 -0.13)"/><path class="cls-1" d="M104.11,18.68a.61.61,0,0,0-.79-.05,8.45,8.45,0,0,1-11-.78l-.26-.28L87.3,12.5l1.06-1.13,3.57-3.76L92.55,7a8.26,8.26,0,0,1,5.18-2.22.6.6,0,0,0,.56-.59v-4a13.2,13.2,0,0,0-9.66,4.12h0L84.08,9.08,79.43,4.15,76.2,7.57l3.71,3.93.94,1L76,17.66l-.1.11a8.35,8.35,0,0,1-6,2.52,8.15,8.15,0,0,1-7.81-5.5H67.7V10.2H62.05a8.14,8.14,0,0,1,7.81-5.49A8.3,8.3,0,0,1,74.32,6l3.24-3.43A13.34,13.34,0,0,0,69.86.13,13.17,13.17,0,0,0,60.2,4.26h0l-8.72,9.24-3.94,4.17-.09.11a8.39,8.39,0,0,1-6,2.52,8,8,0,0,1-8.16-7.79,8.18,8.18,0,0,1,16.3-.57l3.87-4.09a13,13,0,0,0-12-7.71c-7.16,0-13,5.54-13,12.37V37.87L33,33.13a1.18,1.18,0,0,0,.32-.79V22.1A13.41,13.41,0,0,0,51,20.81h0l6-6.39a12.79,12.79,0,0,0,12.8,10.44,13.2,13.2,0,0,0,9.59-4.05h0l4.62-4.89,4.55,4.83h0a13.41,13.41,0,0,0,18.32.94Z" transform="translate(-0.05 -0.13)"/></svg>